<svg width="52" height="50" viewBox="0 0 52 50" fill="none" xmlns="http://www.w3.org/2000/svg">
<circle cx="25" cy="20" r="20" fill="url(#paint0_linear)"/>
<g filter="url(#filter0_d)">
<path fill-rule="evenodd" clip-rule="evenodd" d="M36.7937 26.3681L26.6569 8.76499C26.0693 7.745 24.598 7.745 24.0104 8.76499L13.8736 26.3681C13.286 27.3881 14.0217 28.6667 15.1968 28.6667H35.4705C36.6456 28.6667 37.3813 27.3881 36.7937 26.3681ZM25.3478 13.9462C25.9975 13.9462 26.523 14.4873 26.5039 15.1386L26.3128 21.8235C26.2985 22.3503 25.8685 22.7669 25.3431 22.7669C24.8176 22.7669 24.3877 22.3455 24.3733 21.8235L24.187 15.1386C24.1727 14.4873 24.6934 13.9462 25.3478 13.9462ZM24.1298 25.4535C24.1298 26.1191 24.6696 26.6602 25.3336 26.6602C25.9976 26.6602 26.5374 26.1191 26.5374 25.4535C26.5374 24.7878 25.9976 24.2467 25.3336 24.2467C24.6696 24.2467 24.1298 24.7878 24.1298 25.4535Z" fill="url(#paint1_linear)"/>
</g>
<defs>
<filter id="filter0_d" x="0.666992" y="1" width="51.3333" height="48.6667" filterUnits="userSpaceOnUse" color-interpolation-filters="sRGB">
<feFlood flood-opacity="0" result="BackgroundImageFix"/>
<feColorMatrix in="SourceAlpha" type="matrix" values="0 0 0 0 0 0 0 0 0 0 0 0 0 0 0 0 0 0 127 0"/>
<feOffset dx="1" dy="7"/>
<feGaussianBlur stdDeviation="7"/>
<feColorMatrix type="matrix" values="0 0 0 0 0 0 0 0 0 0 0 0 0 0 0 0 0 0 0.2 0"/>
<feBlend mode="normal" in2="BackgroundImageFix" result="effect1_dropShadow"/>
<feBlend mode="normal" in="SourceGraphic" in2="effect1_dropShadow" result="shape"/>
</filter>
<linearGradient id="paint0_linear" x1="22.7891" y1="-5.34115" x2="-1.88802" y2="21.3932" gradientUnits="userSpaceOnUse">
<stop stop-color="#FFCA2D"/>
<stop offset="0.263492" stop-color="#F9AF2F"/>
<stop offset="0.528858" stop-color="#FEA930"/>
<stop offset="0.765545" stop-color="#FB9732"/>
<stop offset="1" stop-color="#FD8B32"/>
</linearGradient>
<linearGradient id="paint1_linear" x1="19.2436" y1="6.78166" x2="11.5394" y2="25.2118" gradientUnits="userSpaceOnUse">
<stop stop-color="#FCFEFA"/>
<stop offset="1" stop-color="#FEE6CF"/>
</linearGradient>
</defs>
</svg>
